<?xml version="1.0" encoding="utf-8"?>
<!-- Generator: Adobe Illustrator 19.0.0, SVG Export Plug-In . SVG Version: 6.00 Build 0)  -->
<svg version="1.1" id="Layer_1" xmlns="http://www.w3.org/2000/svg" xmlns:xlink="http://www.w3.org/1999/xlink" x="0px" y="0px"
     viewBox="0 0 32 32" style="enable-background:new 0 0 32 32;" xml:space="preserve">
<style type="text/css">
    .st0{fill:#989898;}
</style>
<g>
    <path class="st0" d="M18.6,17.3l7-7l3.4,3.4l-7,7L18.6,17.3z M18,19.8l-0.5,2.1l2.1-0.5L18,19.8z M22.2,21.7l1.5-1.5v7.1H3.9V9.5
        l6.3-6.7h13.4v8.4l-1.5,1.5V4.3H11.2v5.8H5.4v15.6h16.7V21.7z M6.9,8.5h2.8v-3L6.9,8.5z M20.2,14.6v-0.2h-13v1.7h11.5L20.2,14.6z
         M17.7,17.8H7.3v1.7h10L17.7,17.8z M7.3,23.1h9.1l0.4-1.7H7.3V23.1z M7.3,23.1"/>
</g>
</svg>
