<?xml version="1.0" encoding="utf-8"?>
<!-- Generator: Adobe Illustrator 17.0.0, SVG Export Plug-In . SVG Version: 6.00 Build 0)  -->
<!DOCTYPE svg PUBLIC "-//W3C//DTD SVG 1.1//EN" "http://www.w3.org/Graphics/SVG/1.1/DTD/svg11.dtd" [
	<!ENTITY ns_extend "http://ns.adobe.com/Extensibility/1.0/">
	<!ENTITY ns_ai "http://ns.adobe.com/AdobeIllustrator/10.0/">
	<!ENTITY ns_graphs "http://ns.adobe.com/Graphs/1.0/">
	<!ENTITY ns_vars "http://ns.adobe.com/Variables/1.0/">
	<!ENTITY ns_imrep "http://ns.adobe.com/ImageReplacement/1.0/">
	<!ENTITY ns_sfw "http://ns.adobe.com/SaveForWeb/1.0/">
	<!ENTITY ns_custom "http://ns.adobe.com/GenericCustomNamespace/1.0/">
	<!ENTITY ns_adobe_xpath "http://ns.adobe.com/XPath/1.0/">
]>
<svg version="1.1" id="Layer_1" xmlns:x="&ns_extend;" xmlns:i="&ns_ai;" xmlns:graph="&ns_graphs;"
	 xmlns="http://www.w3.org/2000/svg" xmlns:xlink="http://www.w3.org/1999/xlink" x="0px" y="0px" width="299px" height="371px"
	 viewBox="0 0 299 371" enable-background="new 0 0 299 371" xml:space="preserve">
<switch>
	<g i:extraneous="self">
		<path d="M297.7,245.5l-18.1-18.1c-2.3-2.3-6.1-2.3-8.5,0l-43.7,43.7c-2.3,2.3-2.3,6.1,0,8.5l6.7,6.7l-11.2,11.2
			c-2.5,2.5-5.8,3.9-9.3,3.9l-26.8-0.5v-22.6l93.1-93.1c2.3-2.3,2.3-6.1,0-8.5l-18.1-18.1c-2.3-2.3-6.1-2.3-8.5,0l-88.3,88.3
			c-3.1-1-6.4-1.6-9.8-1.6c-8,0-15.4,3-21,8c-27.6-9-46.7-35.1-46.7-64.2c0-8.1,1.4-15.9,4.2-23.5c5.2-1,10-3,14.2-5.8l18.9,18.7
			c0,0,0.1,0.1,0.1,0.1c0.1,0.1,0.2,0.2,0.3,0.2c0.1,0.1,0.1,0.1,0.2,0.1c0.1,0.1,0.2,0.1,0.3,0.2c0.1,0.1,0.2,0.1,0.2,0.2
			c0.1,0.1,0.2,0.1,0.3,0.1c0.1,0.1,0.2,0.1,0.3,0.1c0.1,0,0.1,0.1,0.2,0.1c0.1,0,0.2,0.1,0.3,0.1c0,0,0.1,0,0.1,0.1l27.5,9.1
			l12.6,12.6c2.4,2.4,5.6,3.6,8.8,3.6c3.2,0,6.4-1.2,8.8-3.6l16.5-16.6c4.8-4.8,4.8-12.7,0-17.5l-12.5-12.5l-8.8-27.8
			c0-0.1-0.1-0.1-0.1-0.2c0-0.1-0.1-0.2-0.1-0.3c0-0.1-0.1-0.2-0.2-0.3c0-0.1-0.1-0.1-0.1-0.2c-0.1-0.1-0.1-0.2-0.2-0.4
			c0,0-0.1-0.1-0.1-0.1c-0.1-0.1-0.2-0.2-0.3-0.4c0,0-0.1-0.1-0.1-0.1c-0.1-0.1-0.2-0.2-0.3-0.3c0,0,0-0.1-0.1-0.1l-0.1-0.1
			l-74.3-73.9c-3.5-3.6-8.3-5.5-13.3-5.5c-4.9,0-9.5,1.9-13,5.2L53.2,25.6c0.9-2.2,1.4-4.5,1.4-7c0-5-1.9-9.6-5.4-13.1
			C45.6,1.9,41,0,36,0c-5,0-9.6,1.9-13.1,5.4L5.4,22.9C1.9,26.4,0,31,0,36c0,5,1.9,9.6,5.4,13.1c3.6,3.6,8.4,5.4,13.1,5.4
			c2.4,0,4.7-0.4,7-1.3l24.8,24.8c-7.1,7.4-7,19.1,0.3,26.3l2.1,2.1c0.2,0.2,0.4,0.4,0.6,0.5c-4.1,6.1-6.5,13.4-6.5,21.2
			c0,3.8,0.6,7.5,1.6,10.9C41,155,37.2,171.7,37.2,189c0,26.9,8.9,52.2,25.6,73.2c15.5,19.5,37,33.7,60.8,40.4v30.8h-26
			c-13.9,0-25.2,11.3-25.2,25.2v6.4c0,3.3,2.7,6,6,6H232c3.3,0,6-2.7,6-6v-6.4c0-13.9-11.3-25.2-25.2-25.2h-26v-20.6l26.6,0.5
			c0,0,0.1,0,0.1,0c6.7,0,13.1-2.6,17.8-7.4l11.2-11.2l2.9,2.9c1.2,1.2,2.7,1.8,4.2,1.8c1.5,0,3.1-0.6,4.2-1.8l43.7-43.7
			C300,251.6,300,247.9,297.7,245.5L297.7,245.5z M257.6,171.2l9.6,9.6L184.1,264c-1.9-4.3-4.7-8-8.2-11L257.6,171.2z M58.8,128.2
			c0-14.3,11.7-26,26-26c14.3,0,26,11.7,26,26c0,14.3-11.7,26-26,26C70.5,154.2,58.8,142.6,58.8,128.2L58.8,128.2z M171.7,140.1
			l5.1,16.3l-20.4,20.4l-16.1-5.3L171.7,140.1z M193,176.4L176.4,193c-0.2,0.2-0.4,0.2-0.6,0l-9.3-9.3l17.1-17.1l9.3,9.3
			C193.1,176,193.1,176.3,193,176.4L193,176.4z M91.1,57.1c1.8,0,3.5,0.7,4.8,2l70.1,69.7l-36.8,36.8l-14.3-14.2
			c5-6.4,8-14.5,8-23.3c0-21-17-38-38-38c-8.8,0-16.9,3-23.3,8.1c-0.1-0.1-0.2-0.2-0.3-0.3l-2.1-2.1c-2.6-2.6-2.6-7,0-9.6l27.2-27.2
			C87.5,57.8,89.2,57.1,91.1,57.1L91.1,57.1z M45.8,35.1l23.7,23.7L58.8,69.6L35.1,45.8L45.8,35.1z M13.9,40.7
			C12.7,39.4,12,37.8,12,36c0-1.8,0.7-3.4,1.9-4.7l17.4-17.4c1.2-1.2,2.9-1.9,4.7-1.9c1.8,0,3.4,0.7,4.7,1.9
			c1.2,1.2,1.9,2.9,1.9,4.7c0,1.8-0.7,3.4-1.9,4.7L23.3,40.7C20.7,43.2,16.5,43.2,13.9,40.7L13.9,40.7z M72.2,254.8
			c-15-18.9-23-41.6-23-65.8c0-12.5,2.2-24.7,6.5-36.4c5.8,6.9,14,11.7,23.4,13.1c-2.3,7.5-3.5,15.3-3.5,23.2
			c0,32.9,20.7,62.5,51.1,74.2c-2,4.1-3.1,8.7-3.1,13.6v13.2C103.5,283.8,85.4,271.4,72.2,254.8L72.2,254.8z M226,358.6v0.4H84.4
			v-0.4c0-7.3,5.9-13.2,13.2-13.2h115.2C220.1,345.4,226,351.3,226,358.6L226,358.6z M135.6,333.4v-56.6c0-10.8,8.8-19.6,19.6-19.6
			c10.8,0,19.6,8.8,19.6,19.6v56.6H135.6z M249.8,285l-9.6-9.6l35.2-35.2l9.6,9.6L249.8,285z M249.8,285" fill="#989898"/>
		<path d="M84.8,134.2c3.3,0,6-2.7,6-6c0-3.3-2.7-6-6-6h0c-3.3,0-6,2.7-6,6C78.8,131.5,81.5,134.2,84.8,134.2L84.8,134.2z
			 M84.8,134.2" fill="#989898"/>
		<path d="M155.2,275.8c-1.6,0-3.1,0.6-4.2,1.8c-1.1,1.1-1.8,2.7-1.8,4.2c0,1.6,0.6,3.1,1.8,4.2c1.1,1.1,2.7,1.8,4.2,1.8
			c1.6,0,3.1-0.6,4.2-1.8c1.1-1.1,1.8-2.7,1.8-4.2c0-1.6-0.6-3.1-1.8-4.2C158.4,276.5,156.8,275.8,155.2,275.8L155.2,275.8z
			 M155.2,275.8" fill="#989898"/>
		<g display="none">
			<path display="inline" d="M135.5,238.2c38.1,0,69-37.7,69-84c0-46.3-31-84-69-84c-18.8,0-36.5,9-49.5,25.3
				c-12.6,15.8-19.5,36.6-19.5,58.7C66.5,200.4,97.4,238.2,135.5,238.2L135.5,238.2z M135.5,88.6c27.9,0,50.6,29.4,50.6,65.6
				c0,36.1-22.7,65.6-50.6,65.6c-27.9,0-50.7-29.4-50.7-65.6C84.8,118,107.5,88.6,135.5,88.6L135.5,88.6z M193.5,228.9
				c-5.1,0-9.2,4.1-9.2,9.2c0,5.1,4.1,9.2,9.2,9.2c31.5,0,57.1,25.6,57.1,57.1c0,4-3.3,7.3-7.4,7.3H27.8c-4,0-7.3-3.3-7.3-7.3
				c0-31.5,25.6-57.1,57-57.1c5.1,0,9.2-4.1,9.2-9.2c0-5.1-4.1-9.2-9.2-9.2C35.8,228.9,2,262.8,2,304.5c0,14.2,11.6,25.8,25.8,25.8
				h215.4c14.2,0,25.8-11.6,25.8-25.8C269,262.8,235.1,228.9,193.5,228.9L193.5,228.9z M142.2,59.9c6.6-3.9,13.6-5.8,20.9-5.8
				c27.9,0,50.6,29.4,50.6,65.6c0,6.5-0.7,12.9-2.1,18.9c-1.2,5,1.9,9.9,6.8,11.1c0.7,0.2,1.4,0.3,2.1,0.3c4.2,0,8-2.9,8.9-7.1
				c1.8-7.5,2.7-15.2,2.7-23.1c0-46.3-31-84-69-84c-10.5,0-20.9,2.9-30.3,8.4c-4.4,2.6-5.8,8.2-3.2,12.6
				C132.2,61.1,137.8,62.5,142.2,59.9L142.2,59.9z M222.9,192.1c-5.1,0-9.2,4.1-9.2,9.2c0,5.1,4.1,9.2,9.2,9.2
				c31.5,0,55.2,26.2,55.2,57.7c0,1-0.2,2.1-0.6,3c-2.1,4.6,0,10.1,4.7,12.1c1.2,0.5,2.5,0.8,3.7,0.8c3.6,0,6.9-2.1,8.4-5.5
				c1.5-3.3,2.2-6.8,2.2-10.5C296.6,226.6,264.6,192.1,222.9,192.1L222.9,192.1z M222.9,192.1" fill="#989898"/>
		</g>
	</g>
</switch>
</svg>
