<?xml version="1.0" encoding="utf-8"?>
<!-- Generator: Adobe Illustrator 17.0.0, SVG Export Plug-In . SVG Version: 6.00 Build 0)  -->
<!DOCTYPE svg PUBLIC "-//W3C//DTD SVG 1.1//EN" "http://www.w3.org/Graphics/SVG/1.1/DTD/svg11.dtd" [
	<!ENTITY ns_extend "http://ns.adobe.com/Extensibility/1.0/">
	<!ENTITY ns_ai "http://ns.adobe.com/AdobeIllustrator/10.0/">
	<!ENTITY ns_graphs "http://ns.adobe.com/Graphs/1.0/">
	<!ENTITY ns_vars "http://ns.adobe.com/Variables/1.0/">
	<!ENTITY ns_imrep "http://ns.adobe.com/ImageReplacement/1.0/">
	<!ENTITY ns_sfw "http://ns.adobe.com/SaveForWeb/1.0/">
	<!ENTITY ns_custom "http://ns.adobe.com/GenericCustomNamespace/1.0/">
	<!ENTITY ns_adobe_xpath "http://ns.adobe.com/XPath/1.0/">
]>
<svg version="1.1" id="Capa_1" xmlns:x="&ns_extend;" xmlns:i="&ns_ai;" xmlns:graph="&ns_graphs;"
	 xmlns="http://www.w3.org/2000/svg" xmlns:xlink="http://www.w3.org/1999/xlink" x="0px" y="0px" width="25px" height="25px"
	 viewBox="0 0 25 25" enable-background="new 0 0 25 25" xml:space="preserve">
<switch>
	<g i:extraneous="self">
		<g>
			<path fill-rule="evenodd" clip-rule="evenodd" d="M17.6,9.6c0.1,0.2,0,0.4-0.2,0.5c-0.2,0.1-0.4,0-0.5-0.2
				c-0.1-0.2-0.2-0.5-0.4-0.7C16.4,9,16.2,8.8,16,8.6v0c-0.2-0.2-0.4-0.4-0.6-0.5c-0.2-0.2-0.5-0.3-0.7-0.4
				c-0.2-0.1-0.3-0.3-0.2-0.5C14.5,7,14.8,6.9,15,7c0.3,0.1,0.6,0.3,0.8,0.5c0.3,0.2,0.5,0.4,0.7,0.6c0.2,0.2,0.4,0.5,0.6,0.7
				C17.3,9,17.5,9.3,17.6,9.6L17.6,9.6z M17.6,9.6" fill="#666666" />
			<path fill-rule="evenodd" clip-rule="evenodd" d="M20.1,9.6c0.1,0.2-0.1,0.4-0.3,0.5c-0.2,0.1-0.4-0.1-0.5-0.3
				c-0.1-0.5-0.4-1.1-0.7-1.6c-0.3-0.5-0.6-0.9-1-1.3c-0.4-0.4-0.9-0.8-1.3-1c-0.5-0.3-1-0.5-1.6-0.6c-0.2-0.1-0.3-0.3-0.3-0.5
				c0.1-0.2,0.3-0.3,0.5-0.3c0.6,0.2,1.2,0.4,1.7,0.7c0.6,0.3,1.1,0.7,1.5,1.2c0.4,0.4,0.8,1,1.2,1.5C19.6,8.4,19.9,9,20.1,9.6
				L20.1,9.6z M20.1,9.6" fill="#666666"/>
			<g>
				<defs>
					<rect id="SVGID_1_" y="0" width="25" height="25"/>
				</defs>
				<clipPath id="SVGID_2_">
					<use xlink:href="#SVGID_1_"  overflow="visible"/>
				</clipPath>
				<path clip-path="url(#SVGID_2_)" fill-rule="evenodd" clip-rule="evenodd" d="M22.4,9.7c0,0.2-0.1,0.4-0.3,0.5
					c-0.2,0-0.4-0.1-0.4-0.3c-0.2-0.8-0.5-1.7-0.9-2.4l0,0c-0.4-0.8-0.9-1.4-1.5-2.1c-0.6-0.6-1.3-1.1-2.1-1.5
					c-0.8-0.4-1.6-0.7-2.4-0.9c-0.2,0-0.3-0.2-0.3-0.4c0-0.2,0.2-0.3,0.4-0.3c0.9,0.2,1.8,0.5,2.6,0.9c0.8,0.4,1.6,1,2.3,1.7h0
					C20.4,5.4,21,6.2,21.5,7l0,0C21.9,7.9,22.2,8.8,22.4,9.7L22.4,9.7z M22.4,9.7" fill="#666666"/>
				<path clip-path="url(#SVGID_2_)" fill-rule="evenodd" clip-rule="evenodd" d="M24.4,20.1
					c0.2,0.1,0.2,0.4,0.1,0.5c-0.1,0.2-0.4,0.2-0.5,0.1l-6-4.4l-1,1c-1.5,1.5-3.7,1.1-5.7-0.1c-0.8-0.5-1.5-1.1-2.2-1.7
					c-0.7-0.7-1.3-1.4-1.7-2.2c-1.2-2-1.6-4.2-0.1-5.7l1-1L4.1,1L2.3,2.8l0,0C0.8,4.3,0.4,6.2,1.1,8.6c0.8,2.4,2.8,5.3,6,8.6
					l0.1,0.1h0c0.2,0.2,0.4,0.4,0.5,0.5c3.1,3,5.9,4.9,8.3,5.6c2.3,0.7,4.2,0.3,5.6-1.1l0,0l0,0l0.5-0.5c0.1-0.2,0.4-0.2,0.5,0
					c0.2,0.1,0.2,0.4,0,0.5l-0.5,0.5v0l-0.1,0l0,0c-1.6,1.6-3.8,2.1-6.3,1.3c-2.5-0.8-5.4-2.7-8.6-5.8c-0.2-0.2-0.4-0.4-0.5-0.5
					l-0.1-0.1c-3.3-3.3-5.4-6.3-6.2-8.9C-0.4,6.2,0,4,1.7,2.3l0,0l2.2-2.2c0,0,0,0,0,0C4.1-0.1,4.3,0,4.5,0.2L9,6.4
					c0.1,0.2,0.1,0.4,0,0.5L7.8,8.2c-1.2,1.2-0.8,3,0.2,4.8c0.4,0.7,1,1.4,1.6,2c0.6,0.6,1.3,1.2,2,1.6c1.7,1.1,3.6,1.4,4.8,0.2
					l1.2-1.2h0c0.1-0.1,0.3-0.2,0.5,0L24.4,20.1z M24.4,20.1" fill="#666666"/>
			</g>
			<path d="M22.7,21.8c0.2,0.1,0.2,0.4,0.1,0.5c-0.1,0.2-0.4,0.2-0.5,0.1
				l-1.6-1.1l-3.1-2.3c-0.2-0.1-0.2-0.4-0.1-0.5c0.1-0.2,0.4-0.2,0.5-0.1l1.6,1.1L22.7,21.8z M22.7,21.8" fill="#666666"/>
			<path fill-rule="evenodd" clip-rule="evenodd" d="M2.2,2.3C2.1,2.1,2.1,1.9,2.3,1.7c0.2-0.1,0.4-0.1,0.5,0.1
				l1.1,1.6l1.1,1.6l1.1,1.6C6.4,6.7,6.3,6.9,6.2,7C6,7.2,5.7,7.1,5.6,7L3.3,3.8L2.2,2.3z M2.2,2.3" fill="#666666"/>
		</g>
	</g>
</switch>
</svg>
