<?xml version="1.0" encoding="utf-8"?>
<!-- Generator: Adobe Illustrator 19.0.0, SVG Export Plug-In . SVG Version: 6.00 Build 0)  -->
<svg version="1.1" id="Capa_1" xmlns="http://www.w3.org/2000/svg" xmlns:xlink="http://www.w3.org/1999/xlink" x="0px" y="0px"
     viewBox="0 0 32 32" style="enable-background:new 0 0 32 32;" xml:space="preserve">
<g>
    <path d="M16,4.6c-6.1,0-11,4.9-11,11c0,2.7,0.9,5.1,2.5,7c0.2-1.9,2.2-3.6,4.9-4.3c1,0.9,2.3,1.5,3.7,1.5c1.4,0,2.6-0.5,3.6-1.4
        c2.7,0.8,4.6,2.6,4.7,4.6C26,21,27,18.5,27,15.6C27,9.5,22.1,4.6,16,4.6L16,4.6z M16,18.5c-0.7,0-1.4-0.2-2-0.5
        c-1.4-0.8-2.4-2.5-2.4-4.4c0-2.7,2-4.9,4.4-4.9c2.4,0,4.4,2.2,4.4,4.9c0,1.9-1,3.6-2.5,4.4C17.3,18.3,16.7,18.5,16,18.5L16,18.5z
         M16,18.5" fill="#666666"/>
</g>
</svg>
